<?xml version="1.0" ?><!DOCTYPE svg  PUBLIC '-//W3C//DTD SVG 1.1//EN'  'http://www.w3.org/Graphics/SVG/1.1/DTD/svg11.dtd'><svg enable-background="new 0 0 512 512" height="512px" id="Layer_1" version="1.1" viewBox="0 0 512 512" width="512px" xml:space="preserve" xmlns="http://www.w3.org/2000/svg" xmlns:xlink="http://www.w3.org/1999/xlink"><g><polyline fill="#67A969" points="0,512 512,512 512,0 0,0 0,512  "/><path d="M93.801,109.799H107v23.402c0,4.91-0.438,8.65-1.312,11.21c-0.875,2.563-2.634,4.734-5.283,6.516   c-2.646,1.783-6.036,2.673-10.167,2.673c-4.369,0-7.753-0.582-10.153-1.748c-2.401-1.166-4.255-2.869-5.564-5.109   c-1.309-2.24-2.083-5.012-2.32-8.311l13.199-1.633c0.019,1.79,0.182,3.115,0.489,3.981c0.305,0.866,0.824,1.563,1.555,2.095   c0.5,0.351,1.211,0.525,2.129,0.525c1.456,0,2.524-0.549,3.205-1.649c0.682-1.103,1.023-2.954,1.023-5.561V109.799" fill="#FFFFFF"/><path d="M134.301,138.6c-1.563,0.557-3.188,1.047-4.876,1.474c-2.305,0.612-3.765,1.215-4.377,1.809   c-0.631,0.61-0.947,1.309-0.947,2.09c0,0.889,0.311,1.613,0.932,2.18c0.623,0.565,1.535,0.849,2.743,0.849   c1.268,0,2.445-0.308,3.529-0.919c1.084-0.612,1.854-1.36,2.31-2.241c0.458-0.88,0.686-2.025,0.686-3.431V138.6 M125.301,132.6   l-12-1.199c0.424-2.118,1.037-3.789,1.837-5.007c0.8-1.219,1.952-2.274,3.459-3.168c1.081-0.646,2.567-1.143,4.458-1.496   c1.89-0.354,3.937-0.528,6.136-0.528c3.531,0,6.368,0.199,8.512,0.598c2.145,0.402,3.928,1.235,5.353,2.503   c1.005,0.884,1.799,2.128,2.376,3.737c0.578,1.609,0.868,3.146,0.868,4.607v13.734c0,1.463,0.092,2.609,0.276,3.44   c0.184,0.832,0.59,1.891,1.215,3.179h-11.476c-0.461-0.813-0.764-1.432-0.904-1.856c-0.141-0.426-0.28-1.094-0.417-2.006   c-1.53,1.487-3.053,2.55-4.565,3.188c-2.069,0.85-4.473,1.274-7.209,1.274c-3.637,0-6.4-0.839-8.288-2.521   c-1.888-1.682-2.831-3.754-2.831-6.217c0-2.313,0.677-4.214,2.034-5.7c1.356-1.492,3.862-2.603,7.518-3.328   c4.375-0.874,7.213-1.488,8.513-1.842c1.3-0.354,2.677-0.817,4.134-1.393c0-1.33-0.266-2.264-0.793-2.798   c-0.528-0.535-1.453-0.802-2.779-0.802c-1.701,0-2.975,0.308-3.825,0.919C126.242,130.394,125.707,131.288,125.301,132.6z" fill="#FFFFFF"/><polyline fill="#FFFFFF" points="148.399,121.799 160.682,121.799 166.7,141.572 172.682,121.799 185,121.799 171.772,153    161.234,153 148.399,121.799  "/><path d="M209.602,138.6c-1.563,0.557-3.188,1.047-4.876,1.474c-2.305,0.612-3.765,1.215-4.376,1.809   c-0.631,0.61-0.948,1.309-0.948,2.09c0,0.889,0.311,1.613,0.932,2.18c0.623,0.565,1.537,0.849,2.743,0.849   c1.268,0,2.446-0.308,3.53-0.919c1.084-0.612,1.854-1.36,2.312-2.241c0.456-0.88,0.684-2.025,0.684-3.431V138.6 M200.602,132.6   l-12-1.199c0.425-2.118,1.037-3.789,1.837-5.007c0.8-1.219,1.952-2.274,3.458-3.168c1.082-0.646,2.568-1.143,4.459-1.496   c1.89-0.354,3.936-0.528,6.136-0.528c3.53,0,6.368,0.199,8.512,0.598c2.144,0.402,3.929,1.235,5.354,2.503   c1.006,0.884,1.799,2.128,2.376,3.737c0.579,1.609,0.868,3.146,0.868,4.607v13.734c0,1.463,0.092,2.609,0.276,3.44   c0.183,0.832,0.589,1.891,1.214,3.179h-11.477c-0.46-0.813-0.764-1.432-0.904-1.856c-0.141-0.426-0.279-1.094-0.417-2.006   c-1.53,1.487-3.053,2.55-4.566,3.188c-2.069,0.85-4.472,1.274-7.209,1.274c-3.637,0-6.4-0.839-8.289-2.521   c-1.888-1.682-2.831-3.754-2.831-6.217c0-2.313,0.678-4.214,2.036-5.7c1.355-1.492,3.861-2.603,7.517-3.328   c4.376-0.874,7.214-1.488,8.514-1.842c1.3-0.354,2.677-0.817,4.135-1.393c0-1.33-0.266-2.264-0.793-2.798   c-0.529-0.535-1.454-0.802-2.779-0.802c-1.7,0-2.975,0.308-3.825,0.919C201.541,130.394,201.006,131.288,200.602,132.6z" fill="#FFFFFF"/><path d="M246.802,138.779L260,138c0.258,2.026,0.778,3.565,1.566,4.621c1.283,1.719,3.112,2.58,5.494,2.58   c1.774,0,3.143-0.448,4.101-1.347c0.96-0.896,1.439-1.936,1.439-3.116c0-1.119-0.425-2.121-1.274-3.01   c-0.857-0.889-3.053-1.727-6.592-2.513c-5.793-1.319-9.924-3.06-12.394-5.222c-2.492-2.164-3.739-4.915-3.739-8.26   c0-2.206,0.641-4.288,1.921-6.244c1.282-1.957,3.208-3.492,5.779-4.611c2.573-1.118,6.099-1.678,10.581-1.678   c5.493,0,9.683,1.034,12.566,3.106c2.885,2.072,4.602,5.37,5.151,9.896L271.401,123c-0.288-2.094-0.89-3.618-1.806-4.57   c-0.916-0.954-2.179-1.43-3.791-1.43c-1.326,0-2.326,0.329-2.998,0.989c-0.669,0.659-1.005,1.461-1.005,2.404   c0,0.688,0.155,1.31,0.467,1.866c0.301,0.567,1.619,1.1,3.957,1.595c5.774,1.255,9.912,2.525,12.413,3.81   c2.499,1.284,4.319,2.879,5.455,4.781c1.138,1.902,1.708,4.033,1.708,6.389c0,2.763-0.763,5.312-2.288,7.645   c-1.525,2.336-3.657,4.104-6.394,5.313c-2.738,1.207-6.188,1.809-10.351,1.809c-7.313,0-12.376-1.394-15.191-4.185   C248.761,146.624,247.169,143.079,246.802,138.779" fill="#FFFFFF"/><path d="M314.601,141l12,1.201c-0.624,2.325-1.651,4.336-3.079,6.031c-1.428,1.697-3.25,3.015-5.465,3.958   c-2.217,0.94-5.035,1.409-8.463,1.409c-3.299,0-6.049-0.306-8.251-0.919c-2.199-0.611-4.09-1.604-5.671-2.976   c-1.58-1.371-2.82-2.98-3.722-4.828c-0.899-1.849-1.35-4.297-1.35-7.346c0-3.188,0.548-5.842,1.642-7.959   c0.799-1.557,1.896-2.952,3.286-4.187c1.389-1.234,2.815-2.155,4.279-2.761c2.33-0.95,5.313-1.424,8.943-1.424   c5.088,0,8.966,0.864,11.636,2.596c2.668,1.731,4.537,4.267,5.613,7.604l-12,1.801c-0.324-1.389-0.917-2.436-1.78-3.142   s-2.019-1.06-3.469-1.06c-1.832,0-3.313,0.728-4.449,2.18c-1.134,1.454-1.701,3.651-1.701,6.595c0,2.626,0.568,4.619,1.707,5.981   c1.137,1.363,2.587,2.043,4.351,2.043c1.467,0,2.701-0.39,3.701-1.175S314.108,142.631,314.601,141" fill="#FFFFFF"/><path d="M332,121.799h11.176v5.363c1.082-2.269,2.196-3.828,3.349-4.684c1.147-0.853,2.569-1.277,4.263-1.277   c1.77,0,3.708,0.527,5.813,1.583l-3.722,8.879c-1.418-0.574-2.54-0.864-3.365-0.864c-1.57,0-2.788,0.636-3.657,1.904   c-1.236,1.787-1.856,5.131-1.856,10.031V153h-12V121.799" fill="#FFFFFF"/><path d="M359,121.799h12V153h-12V121.799 M359,109.799h12v8.402h-12V109.799z" fill="#FFFFFF"/><path d="M390.116,137.578c0,2.786,0.515,4.855,1.537,6.202c1.024,1.346,2.323,2.019,3.891,2.019   c1.38,0,2.537-0.646,3.464-1.938c0.929-1.295,1.394-3.485,1.394-6.572c0-2.851-0.484-4.944-1.453-6.282   c-0.97-1.336-2.151-2.006-3.544-2.006c-1.514,0-2.771,0.673-3.779,2.021C390.62,132.367,390.116,134.554,390.116,137.578    M378.201,165v-43.201h11.128v4.107c1.544-1.719,2.959-2.88,4.247-3.486c1.736-0.813,3.658-1.219,5.765-1.219   c4.157,0,7.372,1.584,9.647,4.757c2.274,3.173,3.413,7.092,3.413,11.76c0,5.157-1.24,9.092-3.717,11.809   c-2.479,2.716-5.615,4.073-9.409,4.073c-1.831,0-3.502-0.272-5.016-0.819c-1.513-0.548-2.865-1.36-4.059-2.443V165H378.201z" fill="#FFFFFF"/><path d="M432.802,109.799v12h6.6v9h-6.6v11.29c0,1.355,0.13,2.251,0.394,2.69c0.398,0.681,1.102,1.02,2.11,1.02   c0.906,0,2.17-0.258,3.797-0.777L440,152.71c-2.987,0.592-5.777,0.89-8.369,0.89c-3.008,0-5.225-0.374-6.648-1.126   c-1.426-0.747-2.479-1.891-3.16-3.426c-0.683-1.533-1.021-4.014-1.021-7.439v-10.81h-4.201v-9h4.201v-5.793L432.802,109.799" fill="#FFFFFF"/><path d="M512,364.931C473.734,325.406,350,201,350,201H170l-20,167l147,144h215V364.931" fill="#010101" opacity="0.191"/><polyline fill="#FFFFFF" points="306.814,266.761 342.354,266.937 339.389,290.891 337.761,303.772 329.794,367.988 235.777,400    149.74,367.988 154.996,325.306 190.563,325.306 188.424,342.896 240.44,362.22 297.34,342.896 302.337,302.6 192.923,302.6    157.385,302.424 160.351,278.472 161.979,265.589 169.945,201.374 263.964,169.362 350,201.374 344.745,244.057 309.175,244.057    311.315,226.463 259.3,207.14 202.398,226.463 197.401,266.761 306.814,266.761  "/></g></svg>