<?xml version="1.0" ?><!DOCTYPE svg  PUBLIC '-//W3C//DTD SVG 1.1//EN'  'http://www.w3.org/Graphics/SVG/1.1/DTD/svg11.dtd'><svg enable-background="new 0 0 512 512" height="512px" id="Layer_1" version="1.1" viewBox="0 0 512 512" width="512px" xml:space="preserve" xmlns="http://www.w3.org/2000/svg" xmlns:xlink="http://www.w3.org/1999/xlink"><g><polyline fill="#E44E25" points="0,512 512,512 512,0 0,0 0,512  "/><path d="M512,364.645c-38.58-39.604-160.309-189.301-160.309-189.301H155.086l17.793,194.729L315.395,512H512   V364.645" opacity="0.1"/><polyline fill="#FFFFFF" points="161.318,110.395 174.658,110.395 174.658,125.194 189.814,125.194 189.814,110.395    203.152,110.395 203.152,153.018 189.814,153.018 189.814,135.851 174.658,135.851 174.658,153.018 161.318,153.018    161.318,110.395  "/><polyline fill="#FFFFFF" points="208.608,110.395 249.834,110.395 249.834,120.458 235.89,120.458 235.89,153.018 222.552,153.018    222.552,120.458 208.608,120.458 208.608,110.395  "/><polyline fill="#FFFFFF" points="255.292,110.395 272.873,110.395 279.57,136.425 286.2,110.395 303.794,110.395 303.794,153.018    292.88,153.018 292.88,120.701 284.647,153.018 274.521,153.018 266.205,120.701 266.205,153.018 255.292,153.018 255.292,110.395     "/><polyline fill="#FFFFFF" points="312.281,110.395 325.617,110.395 325.617,142.363 346.839,142.363 346.839,153.018    312.281,153.018 312.281,110.395  "/><polyline fill="#FFFFFF" points="253.253,290.938 253.118,290.938 165.645,290.938 156.023,185.599 155.086,175.344    253.118,175.344 253.253,175.344 351.186,175.344 350.251,185.599 348.467,204.978 347.681,213.57 347.556,213.57 253.253,213.57    253.118,213.57 197.871,213.57 201.449,252.714 253.118,252.714 253.253,252.714 333.568,252.714 344.118,252.714 343.162,262.979    333.964,363.614 333.375,370.073 253.254,391.755 253.254,391.761 253.072,391.811 172.879,370.073 167.396,310.053    185.508,310.053 206.695,310.053 209.483,340.539 253.082,352.035 253.118,352.026 253.118,352.021 296.779,340.516    301.326,290.938 253.253,290.938  "/></g></svg>